<svg width="69" height="69" viewBox="0 0 69 69" fill="none" xmlns="http://www.w3.org/2000/svg">
<rect width="69" height="69" fill="black"/>
<path d="M13.885 30V14.61H19.851V16.206H16.032V21.298H19.129V22.818H16.032V28.461H19.889V30H13.885ZM21.6223 30V14.61H23.0853L27.4553 24.832V14.61H29.2413V30H27.8733L23.4463 19.493V30H21.6223ZM33.3514 30V16.206H30.7484V14.61H38.0254V16.206H35.4984V30H33.3514ZM39.509 30V14.61H42.606C43.632 14.61 44.4807 14.7493 45.152 15.028C45.8233 15.294 46.3173 15.731 46.634 16.339C46.9633 16.9343 47.128 17.7197 47.128 18.695C47.128 19.2903 47.0647 19.835 46.938 20.329C46.8113 20.8103 46.6087 21.222 46.33 21.564C46.0513 21.8933 45.684 22.134 45.228 22.286L47.413 30H45.342L43.328 22.78H41.656V30H39.509ZM41.656 21.241H42.473C43.081 21.241 43.575 21.165 43.955 21.013C44.335 20.861 44.6137 20.6013 44.791 20.234C44.9683 19.8667 45.057 19.3537 45.057 18.695C45.057 17.7957 44.8923 17.1497 44.563 16.757C44.2337 16.3517 43.5813 16.149 42.606 16.149H41.656V21.241ZM51.7176 30V24.566L48.3926 14.61H50.3876L52.7436 22.039L55.0616 14.61H57.0756L53.7696 24.566V30H51.7176ZM15.2116 58V42.61H19.0306C19.9553 42.61 20.69 42.781 21.2346 43.123C21.792 43.4523 22.1973 43.9337 22.4506 44.567C22.704 45.2003 22.8306 45.9667 22.8306 46.866C22.8306 47.6767 22.685 48.3797 22.3936 48.975C22.115 49.5703 21.697 50.0327 21.1396 50.362C20.5823 50.6787 19.8856 50.837 19.0496 50.837H17.3586V58H15.2116ZM17.3586 49.298H18.3466C18.9673 49.298 19.455 49.2283 19.8096 49.089C20.1643 48.9497 20.4176 48.709 20.5696 48.367C20.7216 48.0123 20.7976 47.5183 20.7976 46.885C20.7976 46.1503 20.7406 45.5867 20.6266 45.194C20.5253 44.8013 20.3036 44.529 19.9616 44.377C19.6196 44.225 19.0876 44.149 18.3656 44.149H17.3586V49.298ZM28.2736 58.171C27.2349 58.171 26.4052 57.9683 25.7846 57.563C25.1639 57.1577 24.7206 56.5813 24.4546 55.834C24.1886 55.074 24.0556 54.1873 24.0556 53.174V47.341C24.0556 46.3277 24.1886 45.46 24.4546 44.738C24.7332 44.0033 25.1766 43.446 25.7846 43.066C26.4052 42.6733 27.2349 42.477 28.2736 42.477C29.3122 42.477 30.1356 42.6733 30.7436 43.066C31.3516 43.4587 31.7886 44.016 32.0546 44.738C32.3332 45.46 32.4726 46.3277 32.4726 47.341V53.193C32.4726 54.1937 32.3332 55.0677 32.0546 55.815C31.7886 56.5623 31.3516 57.145 30.7436 57.563C30.1356 57.9683 29.3122 58.171 28.2736 58.171ZM28.2736 56.48C28.8436 56.48 29.2742 56.366 29.5656 56.138C29.8569 55.8973 30.0532 55.568 30.1546 55.15C30.2559 54.7193 30.3066 54.219 30.3066 53.649V46.904C30.3066 46.334 30.2559 45.8463 30.1546 45.441C30.0532 45.023 29.8569 44.7063 29.5656 44.491C29.2742 44.263 28.8436 44.149 28.2736 44.149C27.7036 44.149 27.2666 44.263 26.9626 44.491C26.6712 44.7063 26.4749 45.023 26.3736 45.441C26.2722 45.8463 26.2216 46.334 26.2216 46.904V53.649C26.2216 54.219 26.2722 54.7193 26.3736 55.15C26.4749 55.568 26.6712 55.8973 26.9626 56.138C27.2666 56.366 27.7036 56.48 28.2736 56.48ZM34.6967 58V42.61H36.8057V58H34.6967ZM39.2956 58V42.61H40.7586L45.1286 52.832V42.61H46.9146V58H45.5466L41.1196 47.493V58H39.2956ZM51.0247 58V44.206H48.4217V42.61H55.6987V44.206H53.1717V58H51.0247Z" fill="white"/>
</svg>
